<?xml version="1.0" encoding="utf-8"?>
<!-- Generator: Adobe Illustrator 21.0.2, SVG Export Plug-In . SVG Version: 6.00 Build 0)  -->
<svg version="1.0" id="Layer_1" xmlns="http://www.w3.org/2000/svg" xmlns:xlink="http://www.w3.org/1999/xlink" x="0px" y="0px"
	 viewBox="0 0 945.41 518.39" enable-background="new 0 0 945.41 518.39" xml:space="preserve">
<g>
	<polygon fill="#009688" points="402.25,346.12 409.14,346.12 409.14,343.42 405.1,343.42 405.1,321.55 409.14,321.55 
		409.14,318.85 402.25,318.85 	"/>
	<path fill="#009688" d="M421.84,323.76c-4.17,0-6.75,3.11-6.75,8.11c0,2.6,0.63,4.64,1.86,6.04c1.24,1.41,2.9,2.13,4.95,2.13
		c3.13,0,5.37-1.67,6.29-4.69l0.01-0.05l-2.96-0.87l-0.01,0.05c-0.56,1.8-1.56,2.57-3.33,2.57c-2.4,0-3.47-1.23-3.7-4.24h10.49
		v-0.89c0-2.52-0.64-4.61-1.86-6.03C425.63,324.5,423.9,323.76,421.84,323.76z M418.28,330.18c0.38-2.4,1.45-3.42,3.55-3.42
		c2.69,0,3.33,1.64,3.61,3.42H418.28z"/>
	<rect x="435.63" y="330.03" fill="#009688" width="8.45" height="2.99"/>
	<path fill="#009688" d="M461.93,331.32c-0.2-0.15-0.57-0.29-1.11-0.44l-1.07-0.35l-1.1-0.29c-2.55-0.63-3.37-1.1-3.37-1.92
		c0-0.76,0.68-1.57,2.58-1.57c1.78,0,2.73,1.04,3.02,2.02l0.01,0.04l2.96-0.54l-0.01-0.05c-0.11-0.49-0.48-1.74-1.58-2.82
		c-1.11-1.09-2.59-1.64-4.4-1.64c-2.06,0-3.79,0.66-4.64,1.75c-0.72,1-1.08,1.94-1.08,2.78c0.14,1.96,0.82,2.97,2.52,3.74
		c0.52,0.23,1.02,0.41,1.48,0.55l1.68,0.43c2.48,0.63,3.31,1.15,3.31,2.09c0,1.22-1.17,1.94-3.13,1.94c-2.05,0-3.38-1.09-3.65-2.99
		l-0.01-0.05l-3.04,0.54l0.01,0.05c0.15,1.22,0.68,2.38,1.63,3.52c1.08,1.21,2.96,1.92,5.04,1.92c2.13,0,3.73-0.5,4.75-1.49
		c1.04-1.01,1.55-2.14,1.55-3.45c0-0.83-0.25-1.73-0.67-2.39C463.27,332.18,462.41,331.61,461.93,331.32z"/>
	<path fill="#009688" d="M481.49,337.06c-0.52,0-0.76-0.27-0.76-0.85v-7.6c0-1.53-0.57-2.73-1.7-3.57
		c-1.12-0.85-2.51-1.28-4.13-1.28c-1.46,0-2.77,0.41-3.9,1.22s-1.78,1.91-1.99,3.36l-0.01,0.05l2.96,0.54l0.01-0.05
		c0.36-1.55,1.15-2.13,2.93-2.13c1.81,0,2.84,0.6,2.84,1.65c-0.14,1.36-1.25,1.74-2.99,1.92c-1.97,0.25-3.15,0.59-4.32,1.28
		c-1.28,0.72-1.93,1.96-1.93,3.69c0,2.94,2.3,4.76,6,4.76c1.67,0,3.04-0.44,4.07-1.31l0.2,0.27c0.35,0.51,1.32,1.03,2.35,1.03
		c0.65,0,1.25-0.16,1.79-0.47l0.03-0.02l-0.75-2.59L481.49,337.06z M474.64,337.06c-1.25,0.02-2.12-0.21-2.59-0.67
		c-0.28-0.28-0.42-0.65-0.42-1.1c0-1.35,0.83-1.96,3.08-2.23c1.64-0.21,2.66-0.49,3.04-0.84v2.58c0,1.2-1.15,1.94-1.87,2.12
		c-0.45,0.1-0.81,0.14-1.09,0.14L474.64,337.06L474.64,337.06z"/>
	<polygon fill="#009688" points="500.47,324.28 500.52,324.2 496.73,324.2 493.55,329.07 490.41,324.22 490.39,324.2 486.66,324.2 
		491.69,331.5 486.11,339.61 489.87,339.61 493.58,333.96 497.29,339.59 497.31,339.61 501.07,339.61 495.46,331.53 	"/>
	<rect x="507.31" y="330.03" fill="#009688" width="8.45" height="2.99"/>
	<path fill="#009688" d="M533.6,331.32c-0.2-0.15-0.57-0.29-1.11-0.44l-1.07-0.35l-1.1-0.29c-2.55-0.63-3.37-1.1-3.37-1.92
		c0-0.76,0.68-1.57,2.58-1.57c1.78,0,2.73,1.04,3.02,2.02l0.01,0.04l2.96-0.54l-0.01-0.05c-0.11-0.49-0.48-1.74-1.58-2.82
		c-1.11-1.09-2.59-1.64-4.4-1.64c-2.06,0-3.79,0.66-4.64,1.75c-0.72,1-1.08,1.94-1.08,2.78c0.14,1.96,0.82,2.97,2.52,3.74
		c0.53,0.23,1.02,0.41,1.48,0.55l1.68,0.43c2.48,0.63,3.31,1.15,3.31,2.09c0,1.22-1.17,1.94-3.13,1.94c-2.05,0-3.38-1.09-3.65-2.99
		l-0.01-0.05l-3.04,0.54l0.01,0.05c0.15,1.22,0.68,2.38,1.63,3.52c1.08,1.21,2.96,1.92,5.04,1.92c2.13,0,3.73-0.5,4.75-1.49
		c1.04-1.01,1.55-2.14,1.55-3.45c0-0.83-0.25-1.73-0.67-2.39C534.95,332.18,534.09,331.61,533.6,331.32z"/>
	<polygon fill="#009688" points="542.28,318.85 542.28,321.55 546.33,321.55 546.33,343.42 542.28,343.42 542.28,346.12 
		549.18,346.12 549.18,318.85 	"/>
</g>
<path fill="none" stroke="#009688" stroke-width="4.2" stroke-miterlimit="10" d="M276.03,204.59c0,0-1.33,18.68,17.17,23.59
	c18.5,4.92,29.33,5,32.08,14.33s-5.36,16.64-16.17,17.25c-10.8,0.61-19.33-3.67-25.83-8.58l-7.94,11.32c0,0,6.94,7.01,21.52,9.93
	c14.58,2.92,25.2-0.8,30.5-3.92c5.82-3.42,13.5-10.15,13.5-23.41c0-15.67-12.5-23.28-25.92-25.75s-28.5-7.75-32.33-16
	c-3.83-8.25-1.17-19.33,14.67-23.25s31.33,2.75,39.42,8.08l-7.75,11.5c0,0-10.2-7.17-20.74-7.17c-10.34,0-16.67,5.17-16.67,10.25"/>
<path fill="none" stroke="#009688" stroke-width="4.2" stroke-miterlimit="10" d="M412.6,202.92h15.98v68.21h-14.31v-9.72h-2.47
	c0,0-7.69,11.84-25.09,11.84s-29.24-13.43-32.42-24.83c-3.18-11.4-0.85-24.52,3.33-31.52c4.44-7.44,10.1-14.73,25.74-16.36
	c13.44-1.4,22.83,8.24,25.47,12.68c2.65,4.44,4.95,9.39,4.95,14.76s0,8.11,0,11.1c0,4.44-2.22,11.76-9.05,16.64
	s-18.19,5.66-25.85,0.72c-7.94-5.13-11.79-13.79-10.22-23.3c1.23-7.41,7.69-19.15,21.08-19.15"/>
<path fill="none" stroke="#009688" stroke-width="4.2" stroke-miterlimit="10" d="M458.25,235.63c0,0,0.96-17.64,18.19-21.47
	c12.08-2.68,20.13,5.67,20.13,5.67l9.91-9.91c0,0-10.47-9.61-24.15-9.53c-13.68,0.07-26.7,7.52-30.64,22.13
	c-4.1,15.16,4.2,29.55,18.7,34.97c14.5,5.42,22.59-0.76,26.13-3.2l9.73,9.64c0,0-10.14,10.31-27.6,9.23
	c-17.89-1.1-34.37-17.56-34.37-34.93"/>
<path fill="none" stroke="#009688" stroke-width="4.2" stroke-miterlimit="10" d="M536.99,200.37v-22.83h-14.4v93.38h14.4
	c0,0,0-26.47,0-46.61c0-9.73,5.88-17.44,13.88-21.72c7.22-3.86,21.04-2.99,28.72,6.11c7.18,8.51,6.02,20.02,6.02,26.33v35.89h-14.39
	c0,0,0-27.3,0-41.35c0-15.22-15.99-15.35-15.99-15.35"/>
<path fill="none" stroke="#009688" stroke-width="4.2" stroke-miterlimit="10" d="M617.51,220.63c0,0-0.72-7.95,12.22-7.94
	c12.95,0.01,20.96,5.34,20.96,5.34l5.91-10.84c0,0-11.5-7.46-27.76-6.9c-14.15,0.49-21.28,4.5-22.58,11.59
	c-1.78,9.8,9.24,14.35,20.7,16.18c9.95,1.6,27.58,5.33,31.18,14.48c2.56,6.51,1.96,15.6-1.94,20.59s-11.81,10.2-25.43,10.2
	c-17.86,0-28.87-7.31-28.87-7.31l7.11-11.36c0,0,8.48,5.65,18.87,6.17c10.4,0.52,15.18-2.14,16.4-5.83
	c1.43-4.34,0.28-8.92-7.41-11.17c-5.56-1.63-22.19-2.17-29.32-9.74c-5.69-6.04-4.84-13.33-4.84-13.33"/>
<path fill="none" stroke="#009688" stroke-width="4.2" stroke-miterlimit="10" d="M186.85,241.03
	c1.06,14.98,16.21,32.33,37.06,32.33s31.35-15.23,31.35-15.23l-10.59-7.57c-9.77,11.56-28.42,11.16-39.17,2.36
	c-10.75-8.79-12.54-20.6-9.93-30.37s10.99-22.31,28.34-22.31s27.54,9.51,33.38,19.87s3.5,23.05,3.5,23.05s-41.37,0-54.15,0
	c-5.37-7.9-2.93-29.41,18.04-29.41c17.01,0,19.1,16.26,19.1,16.26H215.2"/>
<path fill="none" stroke="#009688" stroke-width="4.2" stroke-miterlimit="10" d="M674.67,241.03
	c1.06,14.98,16.21,32.33,37.06,32.33s31.35-15.23,31.35-15.23l-10.59-7.57c-9.77,11.56-28.42,11.16-39.17,2.36
	c-10.75-8.79-12.54-20.6-9.93-30.37c2.61-9.77,10.99-22.31,28.34-22.31c17.35,0,27.54,9.51,33.38,19.87s3.5,23.05,3.5,23.05
	s-41.37,0-54.15,0c-5.37-7.9-2.93-29.41,18.04-29.41c17.01,0,19.1,16.26,19.1,16.26h-28.58"/>
</svg>
